<svg width="19" height="18" viewBox="0 0 19 18" fill="none" xmlns="http://www.w3.org/2000/svg">
<g clip-path="url(#clip0_393_1759)">
<g clip-path="url(#clip1_393_1759)">
<path opacity="0.4" d="M10.7925 1.27502C9.96753 0.900024 8.99253 0.900024 8.09253 1.27502L3.21753 3.52502C2.09253 4.05002 1.34253 5.17502 1.34253 6.45002V11.7C1.34253 12.975 2.09253 14.1 3.21753 14.625L8.09253 16.875C8.91753 17.25 9.89253 17.25 10.7175 16.875L15.5925 14.625C16.7175 14.1 17.4675 12.975 17.4675 11.7V6.45002C17.4675 5.17502 16.7175 4.05002 15.5925 3.52502L10.7175 1.27502H10.7925Z" fill="#3725D6"/>
<path d="M13.7925 6.30002L17.0925 4.72502C17.3175 5.02502 17.4675 5.40002 17.5425 5.77502L10.1175 9.37502V17.025C9.74254 17.025 9.36754 17.025 8.99254 17.025V9.37502L1.41754 5.85002C1.41754 5.47502 1.64254 5.10002 1.79254 4.80002L9.44254 8.40002L12.4425 6.97502L4.41754 3.00002L5.76754 2.40002L13.8675 6.30002H13.7925Z" fill="#3725D6"/>
<path d="M5.91755 11.9251C5.61755 11.7751 5.31755 11.9251 5.16755 12.2251C5.01755 12.5251 5.16755 12.8251 5.46755 12.9751L6.96755 13.6501C7.26755 13.8001 7.56755 13.6501 7.71755 13.3501C7.86755 13.0501 7.71755 12.7501 7.41755 12.6001L5.91755 11.9251Z" fill="#3725D6"/>
</g>
</g>
<defs>
<clipPath id="clip0_393_1759">
<rect width="18" height="18" fill="white" transform="translate(0.442505)"/>
</clipPath>
<clipPath id="clip1_393_1759">
<rect width="18" height="18" fill="white" transform="translate(0.442505)"/>
</clipPath>
</defs>
</svg>
