<svg width="19" height="18" viewBox="0 0 19 18" fill="none" xmlns="http://www.w3.org/2000/svg">
<g clip-path="url(#clip0_393_1769)">
<g clip-path="url(#clip1_393_1769)">
<path opacity="0.4" fill-rule="evenodd" clip-rule="evenodd" d="M2.84253 7.42497C2.84253 3.82497 5.76753 0.974976 9.36753 0.974976H9.51753C13.1175 0.974976 16.0425 3.89998 16.0425 7.49997C16.0425 11.1 14.2425 12.9 12.8925 14.325C12.7425 14.475 12.6675 14.625 12.5175 14.7C12.0675 15.225 10.9425 16.2 10.3425 16.8C9.81753 17.25 9.06753 17.25 8.61753 16.8C8.01753 16.2 6.96753 15.225 6.44253 14.7C6.29253 14.55 6.21753 14.4 6.06753 14.25C4.71753 12.75 2.91753 10.875 2.91753 7.49997L2.84253 7.42497Z" fill="#3725D6"/>
<path d="M9.44253 10.35C11.0165 10.35 12.2925 9.07404 12.2925 7.50002C12.2925 5.92601 11.0165 4.65002 9.44253 4.65002C7.86852 4.65002 6.59253 5.92601 6.59253 7.50002C6.59253 9.07404 7.86852 10.35 9.44253 10.35Z" fill="#3725D6"/>
</g>
</g>
<defs>
<clipPath id="clip0_393_1769">
<rect width="18" height="18" fill="white" transform="translate(0.442505)"/>
</clipPath>
<clipPath id="clip1_393_1769">
<rect width="18" height="18" fill="white" transform="translate(0.442505)"/>
</clipPath>
</defs>
</svg>
