<svg width="169" height="55" viewBox="0 0 169 55" fill="none" xmlns="http://www.w3.org/2000/svg">
<path d="M9.81485 39.0569C9.90438 39.0203 9.9939 38.9837 10.1645 38.9054C10.2932 38.8191 10.3408 38.7746 10.3885 38.7301C10.3885 38.7301 10.4459 38.7243 10.5057 38.6991C10.603 38.6341 10.6404 38.5941 10.6778 38.5542C10.6778 38.5542 10.6606 38.5455 10.7225 38.5448C11.3536 38.1982 11.9229 37.8524 12.4921 37.5065C12.6761 37.3974 12.8601 37.2882 13.1591 37.1602C13.3964 37.1519 13.5187 37.1624 13.6409 37.1729C13.6816 37.259 13.7223 37.3451 13.7952 37.5157C13.8768 37.6817 13.9261 37.7632 13.9755 37.8447C14.525 39.1257 15.0744 40.4067 15.6688 41.7895C15.7967 42.032 15.8799 42.1727 15.963 42.3135C15.967 42.3428 15.9709 42.3722 15.9896 42.4877C16.0458 42.615 16.0872 42.6562 16.1286 42.6973C16.4309 43.2728 16.7557 43.8373 17.0276 44.4277C17.2011 44.8044 17.2747 45.2286 17.4311 45.6153C17.8089 46.5492 18.1949 47.4803 18.6061 48.3991C18.8083 48.8508 18.726 49.1176 18.2858 49.3449C17.7014 49.6468 17.1475 50.0113 16.489 50.3836C16.3455 50.4419 16.3127 50.4821 16.299 50.5388C16.299 50.5388 16.3093 50.5478 16.2491 50.5505C15.7255 50.8349 15.2622 51.1166 14.7989 51.3984C13.3966 52.1762 12.0442 53.0833 10.5737 53.6842C9.66117 54.0571 8.56961 53.9654 7.44548 54.0572C7.21542 54.0259 7.09828 54.0197 6.98115 54.0135C6.92645 53.9923 6.87176 53.9712 6.73472 53.9054C6.53896 53.8476 6.42556 53.8344 6.31216 53.8212C5.97353 53.6458 5.63491 53.4703 5.22071 53.2423C5.0891 53.1681 5.03305 53.1466 4.977 53.125C4.73457 52.91 4.49214 52.6949 4.17688 52.4061C3.89138 52.0914 3.67869 51.8504 3.46601 51.6094C3.13625 50.7818 2.80648 49.9541 2.46973 48.9996C2.44662 48.7476 2.4305 48.6223 2.41439 48.4971C2.42114 48.1407 2.4279 47.7842 2.44213 47.284C2.50793 46.7309 2.56626 46.3217 2.62458 45.9125C2.70773 45.5758 2.79087 45.239 2.96394 44.8441C3.0766 44.7045 3.09933 44.623 3.12207 44.5416C3.19085 44.4287 3.25962 44.3158 3.37821 44.119C3.59648 43.7448 3.76493 43.4545 3.93339 43.1643C3.97532 43.0703 4.01726 42.9763 4.14978 42.8571C4.27441 42.776 4.30847 42.7202 4.34252 42.6644C4.54439 42.4767 4.74625 42.2891 5.02361 42.0337C5.39237 41.7389 5.68562 41.512 5.97888 41.2851C6.38299 41.0511 6.78711 40.817 7.30219 40.5468C7.71382 40.3128 8.01449 40.115 8.31516 39.9172C8.40696 39.885 8.49876 39.8528 8.66791 39.7732C8.79365 39.6801 8.84206 39.6343 8.89046 39.5886C8.96949 39.5643 9.04853 39.54 9.19865 39.4618C9.45144 39.2909 9.63314 39.1739 9.81485 39.0569ZM13.5092 50.683C12.7487 51.0895 11.9951 51.5104 11.2264 51.8995C9.38972 52.8293 7.53522 53.0548 5.65531 52.0119C5.52819 51.9414 5.35815 51.9529 5.11886 51.9104C7.65597 53.9328 12.0682 53.1708 14.2972 50.3219C14.0056 50.4485 13.8099 50.5335 13.5092 50.683Z" fill="#F0F0F0"/>
<path d="M85.1628 17.2394C85.3275 17.2394 85.4922 17.2394 85.707 17.2394C85.707 25.1639 85.707 33.0824 85.707 41.0379C84.3477 41.1372 82.9298 41.4897 82.2703 39.8187C81.3975 40.2879 80.6531 40.8114 79.8294 41.1068C77.6716 41.8809 75.3463 40.9898 74.0925 38.8505C73.1065 37.168 72.8322 35.295 73.1694 33.3466C73.2072 33.1282 73.1566 32.8952 73.1812 32.6729C73.4752 30.0096 74.6882 28.0291 77.3491 27.0356C77.4988 26.98 77.5445 26.9433 77.5902 26.9066C78.7488 26.6849 79.9093 26.5811 81.1832 26.8543C81.2904 26.8618 81.3725 26.8457 81.3725 26.8457C81.4973 26.8662 81.6222 26.8868 81.8376 26.9271C81.9602 26.8697 81.9922 26.7926 82.0242 26.7154C82.031 26.5325 82.0378 26.3495 82.0427 26.0574C82.0328 25.9206 82.0248 25.893 82.0168 25.8655C82.0168 23.2618 82.0168 20.6582 82.0168 18.026C82.3583 17.9256 82.6436 17.8418 83.0579 17.7381C83.8455 17.5586 84.5041 17.399 85.1628 17.2394ZM79.8086 38.8387C80.403 38.7134 81.0098 38.6278 81.5847 38.4408C81.7791 38.3776 82.022 38.0592 82.024 37.8553C82.0525 34.9454 82.0434 32.0351 82.0434 28.8978C80.9154 28.9501 79.8495 28.9627 78.7915 29.0621C78.1426 29.1231 77.7991 29.615 77.5998 30.2222C76.9421 32.2264 76.8635 34.2781 77.2479 36.3277C77.5497 37.9373 78.3341 38.6597 79.8086 38.8387Z" fill="#F0F0F0"/>
<path d="M147.055 29.4329C146.632 29.4965 146.209 29.5601 145.683 29.6518C145.535 29.7053 145.503 29.7419 145.486 29.7899C145.342 29.8378 145.199 29.8857 144.951 29.9815C144.307 30.3047 143.702 30.5358 143.939 31.3266C143.939 34.6124 143.939 37.8983 143.939 41.2442C143.564 41.2767 143.281 41.3013 142.886 41.3398C142.746 41.3632 142.717 41.3728 142.689 41.3824C142.214 41.3602 141.739 41.3379 141.129 41.3035C140.735 41.3166 140.476 41.3418 140.216 41.3671C140.154 41.1015 140.038 40.8361 140.037 40.5703C140.026 36.3627 140.025 32.1551 140.039 27.9475C140.039 27.7033 140.18 27.4594 140.413 27.221C141.452 27.2155 142.333 27.2045 143.214 27.1934C143.335 27.2781 143.456 27.3628 143.58 27.555C143.612 27.7175 143.641 27.7725 143.67 27.8274C143.69 27.9343 143.711 28.0411 143.737 28.2487C143.771 28.4065 143.8 28.4636 143.829 28.5206C143.829 28.5206 143.831 28.5754 143.864 28.6457C143.979 28.6886 144.061 28.661 144.144 28.6335C145.079 28.1678 146.016 27.7053 146.95 27.2353C147.823 26.7952 148.756 26.8808 149.801 26.9636C150.014 27.0108 150.112 27.0226 150.211 27.0345C151.693 27.6686 152.418 28.8372 152.667 30.4889C152.68 34.0474 152.692 37.46 152.704 40.8725C152.575 41.0177 152.451 41.2852 152.318 41.289C151.165 41.3222 150.011 41.3081 148.778 41.3081C148.778 38.0365 148.778 34.8479 148.781 31.5347C148.772 31.3807 148.76 31.3513 148.748 31.3219C148.606 30.9051 148.464 30.4883 148.298 29.9698C148.225 29.8334 148.176 29.7989 148.127 29.7643C148.127 29.7643 148.122 29.7798 148.113 29.7338C148.048 29.6673 147.991 29.6468 147.934 29.6263C147.798 29.5632 147.662 29.5 147.437 29.421C147.251 29.4143 147.153 29.4236 147.055 29.4329Z" fill="#F0F0F0"/>
<path d="M99.4769 28.7173C99.4808 28.7459 99.4848 28.7744 99.5 28.8947C99.5455 29.0446 99.5796 29.1028 99.6138 29.1609C99.6469 31.4878 99.6795 33.8146 99.7135 36.1414C99.7196 36.557 99.7083 36.9744 99.7445 37.3876C99.8864 39.0036 100.312 39.2893 101.919 38.8734C102.171 39.8181 101.907 40.2504 100.467 40.8329C98.8613 41.4825 97.5174 41.7905 96.2228 39.658C94.2448 40.9743 92.2504 42.3195 89.758 40.4929C89.5881 40.3305 89.4885 40.2384 89.3888 40.1462C89.3888 40.1462 89.3848 40.0791 89.3639 40.0111C89.2813 39.9235 89.2196 39.904 89.1579 39.8845C89.1274 39.9073 89.0968 39.9301 89.0691 40.015C89.0718 40.0769 89.0588 40.0855 89.0588 40.0855C89.1127 40.0351 89.1667 39.9846 89.1955 39.7881C89.0712 39.4301 88.972 39.2182 88.8728 39.0063C88.8407 37.9265 88.5896 36.7978 88.8237 35.7773C89.2675 33.8429 90.433 33.1544 92.7942 33.0379C93.742 32.9911 94.6901 32.9489 95.757 32.8887C95.8919 32.8175 95.9078 32.7623 95.9238 32.7072C95.9323 32.3113 95.9407 31.9154 95.9483 31.4056C95.9397 31.2645 95.932 31.2373 95.9243 31.2101C95.9056 30.9077 95.8869 30.6052 95.8198 30.2018C95.6214 29.9533 95.4713 29.8058 95.3211 29.6583C95.3211 29.6583 95.2839 29.6823 95.2822 29.6349C95.2226 29.5764 95.1647 29.5653 95.1068 29.5542C93.52 29.1635 92.0485 29.582 90.6063 30.1829C89.6724 29.1655 89.6522 29.0696 90.3661 28.5331C90.5122 28.4777 90.5505 28.436 90.5889 28.3943C90.5889 28.3943 90.6607 28.3912 90.7483 28.3675C91.1503 28.1958 91.4647 28.0478 91.7791 27.8998C93.247 27.0376 94.9404 27.2032 96.5307 26.9027C96.7411 26.8629 96.9922 27.0326 97.3242 27.1346C97.493 27.1678 97.5621 27.1717 97.6312 27.1756C98.121 27.4972 98.6107 27.8188 99.1472 28.2185C99.2167 28.3494 99.2562 28.383 99.3125 28.3974C99.3125 28.3974 99.3213 28.3855 99.3165 28.437C99.3667 28.5649 99.4218 28.6411 99.4769 28.7173ZM95.2265 38.7448C95.5181 38.5478 96.0591 38.353 96.0609 38.1535C96.0722 36.8413 95.9674 35.5281 95.8996 34.1982C95.6762 34.1982 95.5081 34.1867 95.3422 34.2C92.7645 34.4056 92.7448 34.5114 92.7148 36.8607C92.6892 38.8569 93.1292 39.191 95.2265 38.7448Z" fill="#F0F0F0"/>
<path d="M168.616 38.7162C169.206 38.6846 168.93 39.1361 168.967 39.5011C168.93 39.6378 168.925 39.6686 168.92 39.6993C168.869 39.7205 168.826 39.7529 168.73 39.84C168.636 39.9305 168.603 39.9772 168.571 40.024C167.582 40.7903 166.469 41.1933 165.207 41.1429C165.058 41.137 164.911 41.063 164.664 40.969C164.298 40.724 164.031 40.5305 163.764 40.337C163.764 40.337 163.752 40.3573 163.746 40.294C163.587 39.9897 163.434 39.7488 163.241 39.4458C162.804 39.7728 162.42 40.0606 162.035 40.3484C161.837 40.4255 161.64 40.5025 161.362 40.6448C160.953 40.8379 160.623 40.9658 160.294 41.0937C158.825 41.6798 157.473 41.3727 156.553 40.18C156.041 39.5156 155.863 38.5195 155.757 37.6461C155.654 36.8024 155.795 35.9182 155.922 35.0654C155.96 34.8101 156.309 34.6005 156.599 34.2927C157.282 33.8397 157.883 33.4641 158.483 33.0884C159.692 32.9889 160.905 32.9206 162.107 32.7643C162.359 32.7315 162.737 32.3966 162.767 32.1644C162.849 31.5168 162.875 30.8297 162.74 30.1971C162.622 29.6445 162.168 29.3672 161.503 29.3933C160.32 29.4396 159.138 29.3403 158.007 29.847C157.793 29.943 157.432 29.7156 157.138 29.6374C157.512 29.275 156.583 28.617 157.514 28.3111C158.61 27.9513 159.607 27.2133 160.717 26.9991C161.874 26.7757 163.115 26.9808 164.435 27.0265C164.886 27.1861 165.222 27.318 165.558 27.4498C165.558 27.4498 165.562 27.4343 165.572 27.4775C165.636 27.5456 165.69 27.5704 165.743 27.5952C166.543 28.4291 166.701 29.4871 166.719 30.5605C166.757 32.8214 166.722 35.0835 166.767 37.3442C166.776 37.7818 167.012 38.215 167.21 38.7145C167.277 38.7786 167.335 38.8325 167.335 38.8325L167.414 38.828C167.594 38.842 167.775 38.856 168.078 38.8689C168.34 38.8172 168.478 38.7667 168.616 38.7162ZM163.053 36.7888C163.053 35.89 163.053 34.9912 163.053 34.099C159.688 34.0639 159.768 34.4518 159.748 36.9526C159.746 37.1454 159.746 37.3418 159.78 37.5305C159.992 38.7211 160.427 39.0059 161.633 38.7287C162.11 38.619 162.578 38.4693 163.055 38.3366C163.055 37.8303 163.055 37.3901 163.053 36.7888Z" fill="#F0F0F0"/>
<path d="M70.4654 38.9775C70.5927 38.9844 70.72 38.9912 70.9662 38.9941C71.1852 38.9462 71.2853 38.9023 71.3855 38.8584C71.5178 38.8744 71.6503 38.8905 71.7926 39.02C71.8102 39.3133 71.8178 39.4931 71.8253 39.6729C71.8253 39.6729 71.7951 39.7369 71.7424 39.7936C71.4372 40.0658 71.1847 40.2811 70.9322 40.4964C70.369 40.7223 69.8059 40.9481 69.1288 41.1862C68.9535 41.2292 68.8922 41.2599 68.8309 41.2907C68.5333 41.2771 68.2358 41.2636 67.8272 41.2214C67.4563 41.0854 67.1964 40.9781 66.9365 40.8707C66.802 40.7113 66.6675 40.5519 66.4749 40.3148C66.2839 40.0221 66.1508 39.8072 65.9997 39.5631C65.6501 39.8501 65.3573 40.0906 65.0645 40.331C64.2231 40.6705 63.3817 41.0099 62.4052 41.3539C61.9843 41.3663 61.6986 41.3744 61.4129 41.3824C61.1443 41.3093 60.8757 41.2361 60.5173 41.1193C60.3626 41.059 60.2977 41.0424 60.2328 41.0257C59.1328 40.1971 58.43 39.1905 58.5629 37.7129C58.6645 36.5827 58.3326 35.3274 59.2339 34.4294C59.7904 33.8749 60.5333 33.3295 61.2737 33.1778C62.6486 32.8961 64.0828 32.9055 65.6282 32.783C65.3916 31.7295 66.0121 30.6183 65.1747 29.5333C64.8075 29.4058 64.5353 29.3477 64.2632 29.2895C64.082 29.2798 63.9007 29.27 63.5911 29.2618C63.3416 29.2845 63.2204 29.3056 63.0993 29.3267C62.4001 29.4763 61.6626 29.5315 61.0109 29.7977C60.0358 30.1959 60.0234 29.4448 59.8582 28.9278C59.6771 28.3609 60.1519 28.2216 60.5586 28.0855C61.3534 27.8193 62.151 27.5616 62.945 27.2929C63.1225 27.2328 63.2897 27.142 63.59 27.067C64.0106 27.0139 64.3029 26.9591 64.5953 26.9043C64.8288 26.9027 65.0623 26.9012 65.4393 26.8967C66.2043 26.9411 66.8257 26.9882 67.4472 27.0354C68.9789 27.6319 69.4837 28.8302 69.4662 30.3841C69.4409 32.6445 69.463 34.9054 69.4681 37.2856C69.482 37.4315 69.4926 37.4579 69.5032 37.4843C69.6686 37.9328 69.8339 38.3812 70.084 38.8975C70.2677 38.9694 70.3665 38.9735 70.4654 38.9775ZM62.5175 37.043C62.5389 37.2369 62.5655 37.4303 62.5805 37.6247C62.6281 38.2419 62.7985 38.949 63.4705 38.9337C64.2651 38.9157 65.053 38.567 65.8401 38.3482C65.8776 38.3377 65.8983 38.1962 65.8946 38.1173C65.8314 36.7932 65.7631 35.4693 65.6964 34.1532C62.9488 34.0137 62.6169 34.3041 62.5175 37.043Z" fill="#F0F0F0"/>
<path d="M49.7434 22.5063C48.1841 22.4537 46.6249 22.401 44.9248 22.3435C44.6574 22.3464 44.5309 22.3542 44.4045 22.362C44.2841 22.2441 44.0615 22.1268 44.0607 22.0082C44.0571 21.4431 44.1137 20.8777 44.1524 20.2574C49.3704 20.2574 54.5221 20.2574 59.7534 20.2574C59.674 20.9192 59.5982 21.5518 59.5061 22.3206C58.9604 22.3206 58.3954 22.3206 57.6887 22.3212C57.4199 22.3354 57.2929 22.3491 57.1659 22.3628C56.4218 22.3907 55.6751 22.3887 54.9345 22.4547C54.2013 22.5201 53.8254 22.8635 53.8308 23.6993C53.8645 28.9351 53.8477 34.1713 53.8476 39.4073C53.8476 40.0281 53.8476 40.6488 53.8476 41.3824C52.5236 41.3824 51.2722 41.3824 49.966 41.2629C49.9122 35.1838 49.9151 29.2243 49.9067 23.2647C49.9063 23.0118 49.8002 22.7591 49.7434 22.5063Z" fill="#F0F0F0"/>
<path d="M135.357 39.8329C134.319 40.3 133.289 40.789 132.237 41.2208C131.927 41.3478 131.553 41.3127 131.066 41.3544C130.587 41.3654 130.251 41.3739 129.915 41.3824C129.79 41.3669 129.664 41.3514 129.428 41.3097C129.128 41.2527 128.939 41.2217 128.75 41.1908C126.721 40.6649 125.7 39.1896 125.159 37.2703C125.116 37.1204 125.144 36.9505 125.125 36.656C125.054 36.1751 124.997 35.8281 124.939 35.4811C125.045 34.0987 124.972 32.726 125.272 31.3294C125.773 28.9959 127.192 27.7806 129.309 27.1678C129.728 27.0465 130.171 27.0108 130.733 26.9319C130.987 26.9176 131.112 26.9072 131.237 26.8967C131.31 26.9043 131.384 26.9118 131.581 26.9217C132.266 27.0285 132.829 27.1329 133.391 27.2373C134.164 27.8728 135.096 28.3901 135.665 29.1771C136.226 29.9552 136.414 31.0078 136.776 31.936C137.099 32.7637 136.619 33.6515 135.751 33.7988C135.402 33.858 135.052 33.9129 134.7 33.9492C133.073 34.1169 131.446 34.2831 129.819 34.4376C129.088 34.507 129.012 35.1472 128.929 35.6251C128.757 36.6014 129.791 38.3226 130.736 38.5603C131.476 38.7466 132.306 38.817 133.05 38.6812C134.295 38.4542 135.503 38.0217 136.737 37.6727C137.115 38.1875 137.162 38.6332 136.489 38.9871C136.176 39.1514 135.91 39.4049 135.541 39.6621C135.425 39.7484 135.391 39.7906 135.357 39.8329ZM131.892 29.3382C131.094 28.6778 129.81 28.7404 129.453 29.5376C129 30.5495 128.815 31.6377 128.957 32.7558C130.315 32.6952 131.596 32.6381 133.159 32.5683C132.727 31.4229 132.352 30.4298 131.892 29.3382Z" fill="#F0F0F0"/>
<path d="M11.4675 28.6098C11.5868 27.4702 12.3591 26.7648 13.2469 26.9174C14.106 27.065 14.7814 28.1864 14.3529 29.0681C14.1626 29.4599 13.491 29.7332 12.9801 29.8743C12.3343 30.0528 11.9238 29.6105 11.6545 29.086C11.5857 28.9521 11.5319 28.8114 11.4675 28.6098Z" fill="#F0F0F0"/>
<path d="M14.4673 33.7159C14.5485 33.6712 14.6297 33.6266 14.8116 33.5587C15.2713 33.5356 15.6304 33.5358 15.9894 33.5359C16.0602 33.592 16.131 33.648 16.2657 33.7567C16.3838 33.8419 16.4379 33.8746 16.4919 33.9072C16.5489 34.0311 16.6209 34.1505 16.6605 34.2793C17.0852 35.6595 17.0836 36.071 15.4822 36.5305C15.2853 36.5413 15.2084 36.5475 15.1315 36.5537C14.8726 36.4006 14.6138 36.2475 14.3026 36.0231C14.2197 35.8895 14.1716 35.8721 14.1062 35.8996C13.8374 35.2314 13.7234 34.5679 14.2684 33.888C14.4006 33.8086 14.434 33.7622 14.4673 33.7159Z" fill="#F0F0F0"/>
<path d="M12.6748 34.4036C12.2805 34.8962 11.9743 35.6193 11.473 35.8327C10.4823 36.2544 9.64715 35.4913 9.65707 34.333C9.66097 33.8767 9.77974 33.4215 9.96642 32.9185C10.5207 32.6904 10.9548 32.5096 11.3889 32.3287C11.3889 32.3287 11.4416 32.3711 11.5001 32.4098C11.6198 32.4623 11.6809 32.476 11.742 32.4897C12.0413 32.8989 12.3407 33.308 12.6441 33.8515C12.6571 34.1252 12.666 34.2644 12.6748 34.4036Z" fill="#F0F0F0"/>
<path d="M13.7115 50.727C13.9726 50.6232 14.1786 50.5479 14.4854 50.4358C12.1401 52.9588 7.49768 53.6336 4.82822 51.8426C5.07999 51.8802 5.2589 51.87 5.39265 51.9325C7.37063 52.856 9.32188 52.6563 11.2543 51.8329C12.0632 51.4883 12.8561 51.1156 13.7115 50.727Z" fill="#F0F0F0"/>
<path d="M102.021 28.1899C101.941 27.5336 102.116 27.1946 102.791 27.1932C103.303 27.1921 103.814 27.0504 104.327 27.034C106.18 26.9748 106.627 27.2136 107.173 28.9572C107.874 31.19 108.447 33.4624 109.065 35.7202C109.209 36.243 109.315 36.7757 109.608 37.3623C109.94 36.4574 110.327 35.568 110.593 34.6441C111.146 32.7246 111.617 30.7815 112.17 28.8622C112.25 28.5861 112.575 28.2251 112.834 28.1795C115.445 27.7214 114.834 27.5288 115.538 29.6962C116.278 31.9771 116.877 34.3037 117.542 36.609C117.61 36.8431 117.708 37.0685 117.879 37.5367C119.485 34.2123 119.924 30.9398 119.571 27.4306C120.453 27.2586 121.313 27.0908 122.309 26.8967C122.386 27.373 122.503 27.8036 122.517 28.2376C122.626 31.5948 121.532 34.6479 120.07 37.5971C119.549 38.648 118.941 39.656 118.414 40.7044C118.16 41.2117 117.811 41.375 117.255 41.3765C115.19 41.3822 115.224 41.3918 114.744 39.4136C114.226 37.2785 113.638 35.1603 112.896 33.041C112.429 34.395 111.985 35.7572 111.49 37.1005C111.034 38.3342 110.558 39.5631 110.011 40.7578C109.883 41.0355 109.441 41.3206 109.128 41.3388C106.915 41.4678 106.932 41.4412 106.373 39.3527C105.605 36.4826 104.831 33.6136 104.008 30.759C103.727 29.7872 103.463 28.7177 102.159 28.5474C102.103 28.5401 102.069 28.3602 102.021 28.1899Z" fill="#F0F0F0"/>
<path d="M29.3325 6.45016C29.9801 11.8262 29.2674 17.0141 27.9569 22.1213C26.5922 27.4395 25.0426 32.7073 23.67 38.0235C22.7403 41.6242 22.0674 45.2862 21.839 49.0189C21.8275 49.2061 21.7869 49.3913 21.7228 49.8321C21.3391 49.2494 21.0266 48.8691 20.8145 48.4366C19.8198 46.4078 19.3924 44.2208 19.3292 41.974C19.1604 35.9719 20.47 30.2051 22.0221 24.4762C23.3617 19.5312 24.7458 14.5949 25.9103 9.60526C26.5088 7.04073 26.6716 4.36819 27.0284 1.74404C27.057 1.53359 27.0628 1.31986 27.092 0.942871C28.4621 2.60986 28.978 4.45571 29.3325 6.45016Z" fill="#F0F0F0"/>
<path d="M0.00294008 13.6198C3.27465 16.1124 7.19291 16.8493 11.0369 17.8415C14.0727 18.6251 16.7017 20.1532 18.1244 23.1095C18.6695 24.2421 18.8958 25.5273 19.3143 26.8965C17.743 26.0918 16.4797 25.2471 15.0891 24.7769C12.7239 23.9772 10.273 23.4329 7.86865 22.7443C5.5475 22.0796 3.49639 20.9583 1.93903 19.059C0.676082 17.5187 0.137188 15.7178 0.0182045 13.6944C0.0143599 13.6247 -0.00783859 13.6124 0.00294008 13.6198Z" fill="#F0F0F0"/>
<path d="M26.5666 42.1842C26.5673 40.3626 26.5877 38.6248 26.5576 36.8878C26.5461 36.2222 26.7276 35.9286 27.4723 35.9513C30.2011 36.0345 32.9351 35.9946 35.6605 36.131C38.7947 36.288 41.5575 39.123 41.6431 42.1147C41.7464 45.7237 39.387 48.7992 36.0033 49.0691C33.0627 49.3036 30.0935 49.1911 27.1369 49.2285C26.5406 49.2361 26.5622 48.8091 26.5624 48.4057C26.5633 46.3599 26.5649 44.3141 26.5666 42.1842ZM39.4171 39.5536C39.4445 39.5609 39.4723 39.5751 39.4991 39.5735C39.5188 39.5723 39.5373 39.5506 39.5564 39.538C39.175 39.0248 38.895 38.3702 38.395 38.0223C35.9482 36.3202 33.2236 36.7357 30.5181 37.1951C31.7328 37.3291 32.9564 37.3066 34.1788 37.3342C36.1771 37.3794 37.9873 37.891 39.4171 39.5536Z" fill="#F0F0F0"/>
<path d="M19.9338 17.1873C17.7968 17.5869 16.0826 15.623 15.7847 13.559C15.5989 12.2719 15.6262 10.9687 16.5313 9.88073C17.5669 8.63573 18.9949 8.44421 20.3216 9.36681C22.2455 10.7048 22.9706 13.8747 21.6893 15.8273C21.313 16.4008 20.5771 16.734 19.9338 17.1873Z" fill="#F0F0F0"/>
<path d="M39.0465 39.5121C37.6604 37.747 35.8472 37.1921 33.8455 37.1432C32.621 37.1132 31.3954 37.1376 30.1787 36.9923C32.8888 36.4941 35.618 36.0436 38.0688 37.8893C38.5697 38.2666 38.8502 38.9764 39.2322 39.5329C39.2131 39.5465 39.1946 39.57 39.1748 39.5713C39.1479 39.573 39.1201 39.5577 39.0465 39.5121Z" fill="#F0F0F0"/>
</svg>
